<?xml version="1.0" encoding="UTF-8"?>
<svg id="_레이어_1" data-name="레이어 1" xmlns="http://www.w3.org/2000/svg" viewBox="0 0 602.3 430.56">
  <path d="M555.11,53.7h40.5c2.21,0,7.66,6.51,6.55,9.45v346.1c.15,3.36-1.36,6.17-4.3,7.7l-261.28.72c-4.83.94-10.38,1.44-15.02,2.98-11.35,3.78-14.88,14.62-28.5,7.6-12.15-6.26-13.7-9.52-29.41-10.59l-259.28-.72c-2.59-1.52-4.7-3.37-4.32-6.68V61.14c-.47-2.88,5.47-7.45,7.56-7.45h38.5v-26.5c0-.38,1.54-3.42,1.99-4.01,5.46-7.24,41.97-16.09,51.99-18.01,67.42-12.92,143.92-2.09,200.71,37.39,25.76-19.28,56.69-31.29,88.28-37.41,45.91-8.89,99.14-6.4,143.57,8.5,7.74,2.6,17.04,5.29,22.46,11.54v28.5ZM539.11,356.7V34.2c-7.82-4.28-17.82-7.24-26.57-9.43-42.35-10.6-88.97-10.52-131.44-.58-25.51,5.97-49.95,16.43-71.06,31.94l-1.45,198.55c-4.75,6.57-14.67,5.1-15.51-3.46l.08-192.08c.12-1.27-.28-1.99-1.07-2.93-1.43-1.71-14.35-9.03-17.32-10.68C220.51,15.43,151.23,10.22,91.29,24.38c-9.61,2.27-19.06,5.18-28.22,8.85l-.96,322.95c.04,1.32,10.85-3.32,12.24-3.74,52.64-16.21,112.31-14.87,164.28,3.25,22.13,7.72,48.94,20.72,61.49,41.02,24.81-30.74,64.06-43.76,101.8-50.68,36.34-6.67,70-6.65,106.19,1.18,10.54,2.28,21.06,5.37,30.99,9.51ZM46.11,70.7h-30v331c77.5.3,155.04-.43,232.55.05,8.14.05,16.44-.92,24.83.07,4.27.51,8.42,2.1,12.62,2.87-14.61-20.16-41.87-29.59-65-36.49-41.68-12.42-86.16-13.97-128.63-3.63-10.5,2.56-27.42,10.99-35.96,12.05-2.26.28-5.07.3-7.18-.58-.69-.29-3.23-3.59-3.23-3.84V70.7ZM586.11,70.7h-29.5l-1.5,1.5v300c0,1.38-5.29,4.55-7.4,4.46-5.68-.23-23.54-8.78-31.18-10.88-50.06-13.77-164.54-8.84-198.93,35.91-.77,1-1.94,1.27-1.49,3,8.13-1.54,16.2-3.14,24.49-3.43,79.8-2.84,161.97,3,242.05.49l3.45-1.55V70.7Z"/>
  <path d="M489.23,115.55c12.25,6.37,17.57,13.04,10.68,26.45-7.97,15.51-21.97,30.98-30.28,46.72-5.95,7.03-16.27,1.51-14.49-7.46l30.87-48.08-6.9-4.49c-9.19,16.79-19.25,33.68-29.6,49.91-19.09,29.96-45.33,67.67-69.9,93.1-1.46,1.51-3.43,3.89-5.24,4.76-2.78,1.33-7.15.8-8.11,1.39-3.11,1.9-12.1,38.91-16.14,44.36-1.45,1.63-3.28,2.76-5.14,3.86-7.02,4.18-36.84,18.14-44.07,19.93-8.25,2.04-16.05,0-15.85-9.77.33-15.87,4.27-32.01,4.09-47.98,1.53-10.05,27.1-23.77,34.35-33.65,5-6.82,2.94-11.75,6.03-18.97,7.6-17.72,29.79-50.96,41.33-67.67,22.97-33.25,51.57-63.8,75.7-96.3,22.45-22.93,59.76.8,47.82,31.82-1.01,2.61-6.33,10.07-5.16,12.06ZM463.81,79.91c-1.24.28-2.28.96-3.21,1.79l-74.48,92.5,31.48,22.48c22.43-31.91,41.39-66.07,61.55-99.43,4.1-11.38-3.51-20.05-15.34-17.34ZM377.6,188.79l-33.4,54.57c-.3.97.41,1.25.9,1.8,4.02,4.5,16.83,9.52,21.68,14.4l41.3-49.37-30.49-21.41ZM312.11,324.69c8.4-4.25,19.65-6.73,26.22-13.27,4.6-13.82,7.81-28.27,14.54-41.24l-12.43-9.39-1.35.34c-8.91,12.54-22.01,20.72-33.47,30.57l-2.5,22.99c4.82-3.36,14.89-20.73,19.01-22.47,4.55-1.93,9.52-.12,9.73,5.15.16,3.86-16.99,22.58-19.75,27.31Z"/>
</svg>