<?xml version="1.0" encoding="UTF-8"?>
<svg id="_레이어_1" data-name="레이어 1" xmlns="http://www.w3.org/2000/svg" viewBox="0 0 602.39 430.84">
  <path d="M555.22,53.94h40.5c2.55,0,7.42,5.27,6.57,8.44v346.11c-.62,6.71-2.8,8.89-9.52,9.5l-256.09-.09c-12.57-.77-19.59,6.98-28.79,11.21-12.24,5.62-16.06-3.94-25.69-7.66-5.28-2.04-11.87-2.5-17.44-3.56l-260.29-.71c-2.94-1.53-4.45-4.34-4.3-7.7V62.39c-1.2-3.29,4.14-8.45,6.55-8.45h39.5v-27.5c0-5.48,14.7-10.11,19.23-11.77C107.95-.94,157.94-3.24,202.41,4.25c35.09,5.92,68.89,18.99,98.49,38.55,10.86-7.26,22.08-14.19,33.97-19.72,57.29-26.68,130.88-29.88,191.13-11.41,5.37,1.65,29.23,8.83,29.23,14.77v27.5ZM293.22,386.94V57.44C225.91,13.44,137.28,5.13,62.22,33.94v323c51.31-19.37,109.34-20.37,162-5.5,25.33,7.15,49.35,17.74,69,35.5ZM539.22,356.94V34.44c-15.49-7.27-33.64-11.95-50.64-14.36-62.53-8.87-127.1,1.05-179.36,37.36v329.5c12.77-10.5,24.69-18.94,40.03-25.47,48.59-20.67,107.46-25.43,158.98-14.04,10.61,2.35,20.82,5.81,30.99,9.51ZM46.22,70.94h-30v331c1.5-.73,2.74-1.02,4.44-1.06,80.6-2.01,161.48,1.66,242.1.02l25.46,5.03c-17.66-20.82-44.24-31.3-70-38.49-43.15-12.04-91.98-12.59-135.21-.22-7.05,2.02-22.76,9.59-28.32,9.77-2.96.1-8.46-2.62-8.46-5.55V70.94ZM586.22,70.94h-31v300.5c0,2.26-5.74,6.5-8.46,5.55-52.47-22.44-111.85-24.04-166.54-8.55-24.53,6.95-49.06,17.98-66,37.49l25.46-5.03,246.54.04V70.94Z"/>
  <path d="M439.22,223.95c.19,1.45,1.37,1.67,2.57,1.92,36.52,7.59,80.79,22.19,73.37,69.51-1.39,8.85-14.78,9.25-15.96-.92-1.58-13.56,2.2-18.6-8.47-30.53-27.87-31.17-116.17-30.6-142.03,2.99-8.18,10.62-3.99,15.32-5.57,26.43s-15.5,12.11-16.93.11c-5.41-45.42,39.58-62.07,76.02-68.53l-13.32-6.17c-51.49-33.86-25.94-114.28,36.86-109.86,64.12,4.51,75.32,97.16,13.46,115.05ZM419.05,125.18c-57.06,2.13-53.46,91.73,6.66,85.74,54.42-5.42,48.29-87.79-6.66-85.74Z"/>
</svg>