<?xml version="1.0" encoding="UTF-8"?>
<svg id="_레이어_1" data-name="레이어 1" xmlns="http://www.w3.org/2000/svg" viewBox="0 0 596.34 441.25">
  <path d="M550.15,54.24h39.5c2.21,0,7.66,6.51,6.55,9.45v355.09c.24,3.89-2.14,6.85-5.31,8.69l-262.23.77c-4.06.84-8.75,1.79-12.51,3.49-4.33,1.96-9.29,7.53-12.26,8.74-11.36,4.66-21.38-13.46-34.26-12.23l-264.23-.77c-3.72-1.93-5.26-5.57-5.3-9.7V64.7c-.87-3.19,3.64-10.46,6.54-10.46h39.5v-26.5c0-.3,2.08-4.9,2.52-5.48,2.68-3.53,26.75-10.94,32.48-12.52C122.45-1.65,168.34-2.37,210.33,5.55c31.19,5.88,61.6,17.15,87.5,35.56,5.08-3.03,9.88-6.73,15.01-9.68,61.86-35.64,144.59-39.76,212.07-18.46,5,1.58,25.23,7.73,25.23,13.77v27.5ZM290.15,398.24v-143.5c0-.72-6.95-9.58-8.17-11.83-22.23-40.76-19.52-87.9,8.12-125.22-1.76-18.23,2.5-41.38.1-59-.17-1.28-.16-1.89-.98-3.02-1.18-1.63-14.64-10.03-17.4-11.6-41.08-23.41-102.48-31.38-149.03-25.69-20.76,2.54-40.91,8.24-60.64,14.86v334c50.82-17.52,106.33-18.66,158.22-4.72,25.73,6.92,49.79,17.98,69.78,35.72ZM534.15,33.24c-52.19-19.14-110.43-21.97-164.22-7.72-22.67,6.01-46.5,16.07-64.35,31.16-.1,14.78,1.27,29.72-.43,44.55l19.97-12.52c49.04-25.81,110.83-13.93,144.43,30.61s29.09,103.59-7.37,143.41l53.95,53.01c7.57,7.32-1.76,18.2-9.95,12.94l-55.55-55.41c-41.13,34.6-103.26,32.14-144.5-1.04v126c61.84-50.46,154.14-55.46,228-31V33.24ZM46.15,70.24h-30v342h255.5c1.66,0,9.88,3.49,10.5,2.99-8.49-11.81-24.1-21.2-37.33-27.16-45.58-20.56-106.92-24.07-155.1-11.75-7.78,1.99-29.57,10.99-35.09,10.96-3.49-.02-8.49-4.34-8.49-7.54V70.24ZM580.15,70.24h-30v309.5c0,2.78-5.12,8.03-8.48,7.54-46.82-18.6-98.14-22.94-147.53-12.55-28.91,6.09-59.99,17.47-79.99,40.01,3.11,1.2,8.68-2.5,11.5-2.5h254.5V70.24ZM372.94,91.53c-66.95,3.94-108.59,72.55-81.65,134.06,31.95,72.96,138.2,75.58,174.24,4.52,34.26-67.57-17.99-142.97-92.58-138.58Z"/>
</svg>