<svg width="86" height="43" viewBox="0 0 86 43" fill="none" xmlns="http://www.w3.org/2000/svg">
<rect y="0.83844" width="86" height="42" rx="15" fill="#F4F4F4"/>
<path d="M39.0842 10.025C35.9781 11.0679 33.329 13.3498 31.8581 16.2267C31.3439 17.2206 30.9726 18.2775 30.7513 19.3695C30.1872 22.0853 30.5799 24.9762 31.8581 27.4541C32.6863 29.071 33.8788 30.5059 35.3212 31.6258C36.685 32.6898 38.2702 33.4737 39.9553 33.9147C42.076 34.4747 44.3396 34.4607 46.4817 33.9847C48.4168 33.5507 50.2447 32.6408 51.7014 31.3249C53.2437 29.9319 54.3433 28.105 54.9288 26.1381C55.5643 23.9892 55.65 21.7004 55.2502 19.5025C51.2515 19.5025 47.2529 19.5025 43.2471 19.5025C43.2471 21.1264 43.2471 22.7573 43.2471 24.3812C45.5606 24.3812 47.8812 24.3812 50.1947 24.3812C49.9234 25.9421 48.9808 27.3631 47.6384 28.245C46.7959 28.798 45.8319 29.162 44.8322 29.33C43.8254 29.498 42.7901 29.519 41.7904 29.323C40.7693 29.127 39.7982 28.707 38.9485 28.119C37.5918 27.1881 36.5565 25.8161 36.0281 24.2832C35.4854 22.7223 35.4783 20.9794 36.0281 19.4185C36.4065 18.3195 37.042 17.2976 37.8774 16.4716C38.9057 15.4357 40.2409 14.7007 41.6833 14.3997C42.9186 14.1408 44.2182 14.1898 45.4249 14.5467C46.4531 14.8547 47.3957 15.4007 48.174 16.1287C48.9594 15.3657 49.7377 14.5957 50.5232 13.8328C50.9302 13.4198 51.3658 13.0278 51.7656 12.6008C50.5803 11.5229 49.1808 10.6549 47.6599 10.109C44.9322 9.10803 41.8404 9.08703 39.0842 10.025Z" fill="white"/>
<path d="M39.0842 10.0249C41.8404 9.08692 44.9323 9.10792 47.6742 10.1019C49.1951 10.6478 50.5875 11.5158 51.7799 12.5937C51.3801 13.0137 50.9516 13.4127 50.5375 13.8257C49.7521 14.5886 48.9737 15.3586 48.1883 16.1215C47.41 15.3936 46.4674 14.8406 45.4392 14.5396C44.2325 14.1827 42.9329 14.1337 41.6976 14.3926C40.2553 14.6936 38.92 15.4356 37.8918 16.4645C37.0563 17.2905 36.4208 18.3124 36.0424 19.4114C34.65 18.3544 33.2576 17.2905 31.8652 16.2335C33.329 13.3497 35.9781 11.0678 39.0842 10.0249Z" fill="#E94435"/>
<path d="M30.7513 19.3694C30.9726 18.2775 31.3511 17.2205 31.8581 16.2266C33.2504 17.2835 34.6428 18.3475 36.0352 19.4044C35.4854 20.9653 35.4925 22.7082 36.0352 24.2691C34.6428 25.3261 33.2504 26.39 31.8581 27.447C30.5799 24.9831 30.1872 22.0853 30.7513 19.3694Z" fill="#F8BB15"/>
<path d="M43.2542 19.4954C47.2528 19.4954 51.2515 19.4954 55.2573 19.4954C55.6572 21.6932 55.5715 23.9821 54.936 26.131C54.3505 28.0979 53.2508 29.9318 51.7085 31.3177C50.3589 30.2888 49.0023 29.2598 47.6598 28.2309C49.0023 27.3559 49.9448 25.928 50.2161 24.3671C47.9026 24.3671 45.582 24.3671 43.2685 24.3671C43.2471 22.7502 43.2542 21.1263 43.2542 19.4954Z" fill="#547DBE"/>
<path d="M31.858 27.454C33.2504 26.3971 34.6428 25.3331 36.0352 24.2762C36.5636 25.8161 37.599 27.181 38.9556 28.112C39.8054 28.7 40.7765 29.1129 41.7975 29.3159C42.7972 29.5119 43.8397 29.4909 44.8394 29.3229C45.839 29.1549 46.803 28.7909 47.6456 28.238C48.9951 29.2669 50.3518 30.2959 51.6942 31.3248C50.2375 32.6477 48.4096 33.5507 46.4745 33.9847C44.3395 34.4607 42.076 34.4746 39.9482 33.9147C38.263 33.4737 36.6778 32.6897 35.314 31.6258C33.8788 30.4989 32.6863 29.0639 31.858 27.454Z" fill="#34A751"/>
</svg>
