<svg width="86" height="43" viewBox="0 0 86 43" fill="none" xmlns="http://www.w3.org/2000/svg">
<rect y="0.83844" width="86" height="42" rx="15" fill="#F4F4F4"/>
<circle cx="43" cy="21.8384" r="13.5" fill="#FEE500"/>
<path d="M43.039 14.8539C38.8389 14.8539 35.4517 17.5637 35.4517 20.8533C35.4517 22.9886 36.8608 24.8583 38.9744 25.926L38.259 28.5979C38.2455 28.6379 38.2434 28.6809 38.253 28.722C38.2626 28.7632 38.2834 28.8009 38.3132 28.8309C38.3566 28.8691 38.4125 28.8903 38.4704 28.8905C38.5184 28.8866 38.5639 28.8676 38.6004 28.8363L41.6787 26.7606C42.1331 26.8233 42.5912 26.8559 43.0499 26.8581C47.2446 26.8581 50.6372 24.1484 50.6372 20.8533C50.6372 17.5583 47.2337 14.8539 43.039 14.8539Z" fill="#392020"/>
<path d="M38.107 19.9049H37.2778C37.1751 19.9079 37.0736 19.8816 36.9852 19.829C36.9459 19.8045 36.9122 19.772 36.8861 19.7338C36.86 19.6955 36.8421 19.6523 36.8334 19.6068C36.8308 19.578 36.8308 19.549 36.8334 19.5202C36.8309 19.4662 36.8413 19.4124 36.864 19.3633C36.8866 19.3142 36.9208 19.2714 36.9635 19.2383C37.058 19.1699 37.172 19.1338 37.2887 19.1353H39.7871C39.8907 19.1317 39.9929 19.1601 40.0797 19.2166C40.1199 19.2401 40.1543 19.2723 40.1806 19.3107C40.2068 19.3491 40.2242 19.3929 40.2315 19.4388C40.2341 19.4659 40.2341 19.4931 40.2315 19.5202C40.234 19.5749 40.2236 19.6295 40.201 19.6794C40.1784 19.7293 40.1442 19.7731 40.1014 19.8073C40.0092 19.8757 39.8963 19.9102 39.7817 19.9049H38.9796V22.7556C38.9828 22.8163 38.9734 22.877 38.952 22.934C38.9305 22.9909 38.8975 23.0427 38.8549 23.0862C38.8141 23.1277 38.7651 23.1603 38.7109 23.1818C38.6568 23.2032 38.5988 23.2131 38.5406 23.2108C38.4388 23.2137 38.3392 23.1812 38.2588 23.1187C38.1822 23.0577 38.1303 22.9711 38.1124 22.8748C38.1071 22.8352 38.1071 22.7952 38.1124 22.7556L38.107 19.9049Z" fill="#FEE500"/>
<path d="M40.4707 19.3467C40.4945 19.2575 40.5505 19.1802 40.6279 19.1299C40.7103 19.0831 40.8042 19.0606 40.8988 19.0648H41.1048C41.2052 19.0612 41.3047 19.0856 41.392 19.1353C41.4846 19.1975 41.5504 19.2923 41.5763 19.4008L42.6602 22.4629C42.6883 22.5428 42.7118 22.6242 42.7306 22.7068C42.7325 22.7411 42.7325 22.7754 42.7306 22.8097C42.7325 22.8626 42.7228 22.9151 42.7022 22.9638C42.6816 23.0125 42.6506 23.0561 42.6114 23.0916C42.5734 23.1305 42.5279 23.1612 42.4775 23.1817C42.4272 23.2022 42.3731 23.2121 42.3188 23.2108C42.2352 23.2191 42.1512 23.199 42.0804 23.1538C42.0096 23.1086 41.9561 23.0408 41.9286 22.9615L41.7009 22.2949H40.2756L40.048 22.9615C40.0211 23.0424 39.9669 23.1115 39.8948 23.1569C39.8226 23.2024 39.737 23.2214 39.6524 23.2108C39.5607 23.2132 39.4709 23.1845 39.3976 23.1295C39.3262 23.0727 39.278 22.9918 39.2621 22.9019C39.2593 22.8713 39.2593 22.8404 39.2621 22.8097C39.2528 22.7559 39.2528 22.701 39.2621 22.6472C39.2621 22.5876 39.3001 22.5225 39.3218 22.4629L40.4707 19.3467ZM41.0127 20.0566L40.4978 21.6825H41.5221L41.0127 20.0566Z" fill="#FEE500"/>
<path d="M42.8548 19.5202C42.8493 19.3986 42.8921 19.2797 42.974 19.1896C43.0156 19.1476 43.0656 19.1148 43.1206 19.0934C43.1757 19.0719 43.2347 19.0622 43.2937 19.0649C43.3953 19.0637 43.4943 19.0961 43.5756 19.1571C43.6508 19.2206 43.7008 19.3091 43.7165 19.4063C43.7218 19.4441 43.7218 19.4824 43.7165 19.5202V22.3709H45.2068C45.3101 22.3695 45.4117 22.3977 45.4995 22.4521C45.5389 22.4764 45.5728 22.5088 45.599 22.5471C45.6251 22.5854 45.6429 22.6287 45.6512 22.6743C45.6512 22.6743 45.6512 22.7285 45.6512 22.7556C45.6538 22.8096 45.6433 22.8634 45.6207 22.9124C45.598 22.9615 45.5639 23.0044 45.5212 23.0375C45.4267 23.1059 45.3126 23.142 45.196 23.1404H43.3642C43.2475 23.1479 43.1316 23.1175 43.0336 23.0537C42.946 22.9882 42.8876 22.8909 42.871 22.7828C42.867 22.7232 42.867 22.6634 42.871 22.6039L42.8548 19.5202Z" fill="#FEE500"/>
<path d="M45.7489 19.5202C45.7456 19.399 45.7882 19.2809 45.8681 19.1897C45.9493 19.1158 46.0535 19.0723 46.1631 19.0663C46.2727 19.0604 46.381 19.0925 46.4697 19.1571C46.5466 19.2201 46.5985 19.3085 46.616 19.4064C46.6187 19.4443 46.6187 19.4823 46.616 19.5202V20.848L47.9871 19.2655C48.04 19.2115 48.0961 19.1609 48.1552 19.1138C48.2108 19.0806 48.2746 19.0637 48.3394 19.0649C48.4341 19.0644 48.5268 19.0928 48.605 19.1463C48.6418 19.1711 48.6733 19.2031 48.6975 19.2403C48.7217 19.2776 48.7382 19.3193 48.7459 19.363C48.7481 19.3738 48.7481 19.3849 48.7459 19.3956C48.7432 19.4081 48.7432 19.421 48.7459 19.4335C48.7457 19.4905 48.7308 19.5466 48.7025 19.5961C48.6738 19.6486 48.6392 19.6976 48.5996 19.7424L47.6999 20.7288L48.7838 22.4088V22.463C48.8401 22.5407 48.884 22.6266 48.9139 22.7178V22.7448C48.9202 22.8076 48.9111 22.871 48.8875 22.9295C48.8639 22.9881 48.8265 23.04 48.7784 23.0808C48.688 23.1492 48.5774 23.1854 48.4641 23.1838C48.3888 23.1869 48.314 23.1701 48.2473 23.135C48.1751 23.0866 48.1156 23.0216 48.0739 22.9453L47.0658 21.3195L46.5835 21.8235V22.7286C46.5867 22.8498 46.5442 22.9679 46.4643 23.0591C46.4214 23.101 46.3705 23.1337 46.3146 23.1551C46.2586 23.1766 46.1989 23.1863 46.1391 23.1838C46.0391 23.1859 45.9414 23.1534 45.8627 23.0917C45.7861 23.0307 45.7342 22.9441 45.7164 22.8478C45.711 22.8083 45.711 22.7681 45.7164 22.7286L45.7489 19.5202Z" fill="#FEE500"/>
</svg>
